<svg width="220" height="133" viewBox="0 0 220 133" fill="none" xmlns="http://www.w3.org/2000/svg">
<g clip-path="url(#clip0_869_16341)">
<path d="M0 4C0 1.79086 1.79086 0 4 0H216C218.209 0 220 1.79086 220 4V133H0V4Z" fill="#69E2FF" fill-opacity="0.1"/>
<g opacity="0.15" clip-path="url(#clip1_869_16341)">
<path d="M15.5986 -575.177V708.177" stroke="#0078D4" stroke-width="1.57709" stroke-miterlimit="10"/>
<path d="M46.8564 -575.177V708.177" stroke="#0078D4" stroke-width="1.57709" stroke-miterlimit="10"/>
<path d="M78.1133 -575.177V708.177" stroke="#0078D4" stroke-width="1.57709" stroke-miterlimit="10"/>
<path d="M109.371 -575.177V708.177" stroke="#0078D4" stroke-width="1.57709" stroke-miterlimit="10"/>
<path d="M140.629 -575.177V708.177" stroke="#0078D4" stroke-width="1.57709" stroke-miterlimit="10"/>
<path d="M171.887 -575.177V708.177" stroke="#0078D4" stroke-width="1.57709" stroke-miterlimit="10"/>
<path d="M203.144 -575.177V708.177" stroke="#0078D4" stroke-width="1.57709" stroke-miterlimit="10"/>
<path d="M1076.71 19.6084H-826.71" stroke="#0078D4" stroke-width="1.57709" stroke-miterlimit="10"/>
<path d="M1076.71 50.8691H-826.71" stroke="#0078D4" stroke-width="1.57709" stroke-miterlimit="10"/>
<path d="M1076.71 82.1309H-826.71" stroke="#0078D4" stroke-width="1.57709" stroke-miterlimit="10"/>
<path d="M1076.71 113.392H-826.71" stroke="#0078D4" stroke-width="1.57709" stroke-miterlimit="10"/>
</g>
<rect x="96.7559" y="92.9175" width="25.0825" height="25.0825" rx="3.97139" fill="url(#paint0_linear_869_16341)"/>
<path opacity="0.9" fill-rule="evenodd" clip-rule="evenodd" d="M116.077 105.459C116.077 109.203 113.042 112.238 109.297 112.238C105.553 112.238 102.518 109.203 102.518 105.459C102.518 101.714 105.553 98.6787 109.297 98.6787C113.042 98.6787 116.077 101.714 116.077 105.459ZM108.732 104.805C108.732 104.493 108.985 104.24 109.297 104.24C109.609 104.24 109.862 104.493 109.862 104.805V108.195C109.862 108.507 109.609 108.76 109.297 108.76C108.985 108.76 108.732 108.507 108.732 108.195V104.805ZM109.297 102.157C108.985 102.157 108.732 102.41 108.732 102.722C108.732 103.034 108.985 103.287 109.297 103.287C109.609 103.287 109.862 103.034 109.862 102.722C109.862 102.41 109.609 102.157 109.297 102.157Z" fill="white"/>
<path fill-rule="evenodd" clip-rule="evenodd" d="M49.5199 15C47.0236 15 45 17.0236 45 19.5199V74.3241C45 76.8203 47.0236 78.844 49.5199 78.844H100.327L109.409 87.9262L118.491 78.844H170.428C172.924 78.844 174.948 76.8204 174.948 74.3241V19.5199C174.948 17.0236 172.924 15 170.428 15H49.5199Z" fill="url(#paint1_linear_869_16341)"/>
<g opacity="0.8">
<rect x="63.0801" y="50.5942" width="93.4771" height="3.63018" rx="1.81509" fill="white"/>
</g>
<g opacity="0.8">
<rect x="63.0801" y="40.4248" width="93.4771" height="3.63018" rx="1.81509" fill="white"/>
</g>
<g opacity="0.8">
<rect x="63.0801" y="30.2549" width="93.4771" height="3.63018" rx="1.81509" fill="white"/>
</g>
<g opacity="0.8">
<rect x="63.0801" y="60.1147" width="55.3602" height="3.63018" rx="1.81509" fill="white"/>
</g>
</g>
<defs>
<linearGradient id="paint0_linear_869_16341" x1="96.7559" y1="92.9175" x2="121.838" y2="118" gradientUnits="userSpaceOnUse">
<stop stop-color="#69E2FF"/>
<stop offset="0.78125" stop-color="#0078D4"/>
</linearGradient>
<linearGradient id="paint1_linear_869_16341" x1="45" y1="15" x2="107.248" y2="125.919" gradientUnits="userSpaceOnUse">
<stop stop-color="#69E2FF"/>
<stop offset="0.78125" stop-color="#0078D4"/>
</linearGradient>
<clipPath id="clip0_869_16341">
<path d="M0 4C0 1.79086 1.79086 0 4 0H216C218.209 0 220 1.79086 220 4V133H0V4Z" fill="white"/>
</clipPath>
<clipPath id="clip1_869_16341">
<rect width="1910" height="1285" fill="white" transform="translate(-830 -576)"/>
</clipPath>
</defs>
</svg>
