<svg width="216" height="36" viewBox="0 0 216 36" fill="none" xmlns="http://www.w3.org/2000/svg">
<path d="M0 0H16.8926V16.8926H0V0ZM19.1074 0H36V16.8926H19.1074V0ZM0 19.1074H16.8926V36H0V19.1074ZM19.1074 19.1074H36V36H19.1074V19.1074Z" fill="white"/>
<path d="M83.5625 7.59375L77.4219 30H73.2188L68.9531 14.3281C68.776 13.6615 68.6667 12.9323 68.625 12.1406H68.5625C68.5104 12.8802 68.3854 13.599 68.1875 14.2969L63.9062 30H59.6094L53.3438 7.59375H57.4219L61.4844 24C61.651 24.6875 61.7552 25.4062 61.7969 26.1562H61.875C61.9167 25.625 62.0625 24.9062 62.3125 24L66.9062 7.59375H70.7344L74.9844 24.125C75.1302 24.6875 75.2396 25.3542 75.3125 26.125H75.375C75.4062 25.6042 75.526 24.9167 75.7344 24.0625L79.7188 7.59375H83.5625Z" fill="white"/>
<path d="M87.7738 10.6406C87.18 10.6406 86.6696 10.4479 86.2425 10.0625C85.8258 9.67708 85.6175 9.1875 85.6175 8.59375C85.6175 8 85.8258 7.50521 86.2425 7.10938C86.6696 6.71354 87.18 6.51562 87.7738 6.51562C88.3883 6.51562 88.9092 6.71354 89.3363 7.10938C89.7633 7.50521 89.9769 8 89.9769 8.59375C89.9769 9.15625 89.7633 9.64062 89.3363 10.0469C88.9092 10.4427 88.3883 10.6406 87.7738 10.6406ZM89.5706 30H85.9456V14H89.5706V30Z" fill="white"/>
<path d="M108.251 30H104.626V20.9844C104.626 17.9948 103.568 16.5 101.454 16.5C100.35 16.5 99.4381 16.9167 98.7194 17.75C98.0006 18.5729 97.6413 19.6146 97.6413 20.875V30H94.0006V14H97.6413V16.6562H97.7038C98.9017 14.6354 100.631 13.625 102.891 13.625C104.631 13.625 105.959 14.1927 106.876 15.3281C107.792 16.4531 108.251 18.0833 108.251 20.2188V30Z" fill="white"/>
<path d="M126.915 30H123.29V27.2812H123.228C122.061 29.3438 120.264 30.375 117.837 30.375C115.868 30.375 114.29 29.6615 113.103 28.2344C111.925 26.7969 111.337 24.8438 111.337 22.375C111.337 19.7292 111.988 17.6094 113.29 16.0156C114.603 14.4219 116.347 13.625 118.524 13.625C120.681 13.625 122.248 14.4896 123.228 16.2188H123.29V6.3125H126.915V30ZM123.337 22.6875V20.5938C123.337 19.4583 122.967 18.4948 122.228 17.7031C121.488 16.9115 120.545 16.5156 119.399 16.5156C118.045 16.5156 116.978 17.0208 116.196 18.0312C115.425 19.0417 115.04 20.4427 115.04 22.2344C115.04 23.8594 115.41 25.1458 116.149 26.0938C116.899 27.0312 117.905 27.5 119.165 27.5C120.405 27.5 121.41 27.0469 122.181 26.1406C122.951 25.224 123.337 24.0729 123.337 22.6875Z" fill="white"/>
<path d="M138.423 30.375C135.954 30.375 133.98 29.6302 132.501 28.1406C131.033 26.6406 130.298 24.6562 130.298 22.1875C130.298 19.5 131.064 17.401 132.595 15.8906C134.137 14.3802 136.21 13.625 138.814 13.625C141.314 13.625 143.262 14.3594 144.658 15.8281C146.053 17.2969 146.751 19.3333 146.751 21.9375C146.751 24.4896 145.996 26.5365 144.486 28.0781C142.986 29.6094 140.965 30.375 138.423 30.375ZM138.595 16.5156C137.178 16.5156 136.059 17.0104 135.236 18C134.413 18.9896 134.001 20.3542 134.001 22.0938C134.001 23.7708 134.418 25.0938 135.251 26.0625C136.085 27.0208 137.199 27.5 138.595 27.5C140.022 27.5 141.116 27.026 141.876 26.0781C142.647 25.1302 143.033 23.7812 143.033 22.0312C143.033 20.2708 142.647 18.9115 141.876 17.9531C141.116 16.9948 140.022 16.5156 138.595 16.5156Z" fill="white"/>
<path d="M171.65 14L166.931 30H163.134L160.228 19.1562C160.114 18.7396 160.041 18.2708 160.009 17.75H159.947C159.926 18.1042 159.832 18.5625 159.666 19.125L156.509 30H152.791L148.088 14H151.838L154.744 25.5312C154.838 25.875 154.9 26.3333 154.931 26.9062H155.041C155.072 26.4688 155.155 26 155.291 25.5L158.525 14H161.931L164.806 25.5781C164.9 25.9427 164.968 26.401 165.009 26.9531H165.119C165.14 26.5677 165.218 26.1094 165.353 25.5781L168.197 14H171.65Z" fill="white"/>
<path d="M173.033 29.5V26.1406C174.387 27.1719 175.882 27.6875 177.518 27.6875C179.705 27.6875 180.799 27.0417 180.799 25.75C180.799 25.3854 180.705 25.0781 180.518 24.8281C180.33 24.5677 180.075 24.3385 179.752 24.1406C179.439 23.9427 179.064 23.7656 178.627 23.6094C178.2 23.4531 177.721 23.276 177.189 23.0781C176.533 22.8177 175.939 22.5417 175.408 22.25C174.887 21.9583 174.45 21.6302 174.096 21.2656C173.752 20.8906 173.491 20.4688 173.314 20C173.137 19.5312 173.049 18.9844 173.049 18.3594C173.049 17.5885 173.231 16.9115 173.596 16.3281C173.96 15.7344 174.45 15.2396 175.064 14.8438C175.679 14.4375 176.377 14.1354 177.158 13.9375C177.939 13.7292 178.747 13.625 179.58 13.625C181.059 13.625 182.382 13.849 183.549 14.2969V17.4688C182.424 16.6979 181.132 16.3125 179.674 16.3125C179.215 16.3125 178.799 16.3594 178.424 16.4531C178.059 16.5469 177.747 16.6771 177.486 16.8438C177.226 17.0104 177.023 17.2135 176.877 17.4531C176.731 17.6823 176.658 17.9375 176.658 18.2188C176.658 18.5625 176.731 18.8542 176.877 19.0938C177.023 19.3333 177.236 19.5469 177.518 19.7344C177.809 19.9115 178.153 20.0781 178.549 20.2344C178.955 20.3802 179.419 20.5417 179.939 20.7188C180.627 21 181.241 21.2865 181.783 21.5781C182.335 21.8698 182.804 22.2031 183.189 22.5781C183.575 22.9427 183.872 23.3698 184.08 23.8594C184.288 24.3385 184.393 24.9115 184.393 25.5781C184.393 26.3906 184.205 27.099 183.83 27.7031C183.455 28.3073 182.955 28.8073 182.33 29.2031C181.705 29.599 180.981 29.8906 180.158 30.0781C179.346 30.276 178.486 30.375 177.58 30.375C175.83 30.375 174.314 30.0833 173.033 29.5Z" fill="white"/>
<path d="M203.268 7.09375V30H199.643V11.5312C198.987 12 198.279 12.401 197.518 12.7344C196.768 13.0573 195.909 13.3438 194.94 13.5938V10.5C195.544 10.3021 196.128 10.0938 196.69 9.875C197.253 9.65625 197.805 9.41146 198.346 9.14062C198.898 8.86979 199.45 8.56771 200.003 8.23438C200.565 7.90104 201.143 7.52083 201.737 7.09375H203.268Z" fill="white"/>
<path d="M215.823 7.09375V30H212.198V11.5312C211.542 12 210.834 12.401 210.073 12.7344C209.323 13.0573 208.464 13.3438 207.495 13.5938V10.5C208.099 10.3021 208.682 10.0938 209.245 9.875C209.807 9.65625 210.36 9.41146 210.901 9.14062C211.453 8.86979 212.005 8.56771 212.557 8.23438C213.12 7.90104 213.698 7.52083 214.292 7.09375H215.823Z" fill="white"/>
</svg>
