<svg width="16" height="16" viewBox="0 0 16 16" fill="none" xmlns="http://www.w3.org/2000/svg">
<path d="M13.75 5.5C13.5052 5.5 13.276 5.45573 13.0625 5.36719C12.8542 5.27344 12.6693 5.14844 12.5078 4.99219C12.3516 4.83073 12.2266 4.64583 12.1328 4.4375C12.0443 4.22396 12 3.99479 12 3.75C12 3.51042 12.0443 3.28385 12.1328 3.07031C12.2266 2.85677 12.3516 2.67188 12.5078 2.51562C12.6693 2.35417 12.8542 2.22917 13.0625 2.14062C13.276 2.04688 13.5052 2 13.75 2C13.9896 2 14.2161 2.04688 14.4297 2.14062C14.6432 2.22917 14.8281 2.35417 14.9844 2.51562C15.1458 2.67188 15.2708 2.85677 15.3594 3.07031C15.4531 3.28385 15.5 3.51042 15.5 3.75C15.5 3.99479 15.4531 4.22396 15.3594 4.4375C15.2708 4.64583 15.1458 4.83073 14.9844 4.99219C14.8281 5.14844 14.6432 5.27344 14.4297 5.36719C14.2161 5.45573 13.9896 5.5 13.75 5.5ZM13.75 3C13.5417 3 13.3646 3.07292 13.2188 3.21875C13.0729 3.36458 13 3.54167 13 3.75C13 3.95833 13.0729 4.13542 13.2188 4.28125C13.3646 4.42708 13.5417 4.5 13.75 4.5C13.9583 4.5 14.1354 4.42708 14.2812 4.28125C14.4271 4.13542 14.5 3.95833 14.5 3.75C14.5 3.54167 14.4271 3.36458 14.2812 3.21875C14.1354 3.07292 13.9583 3 13.75 3ZM16 6.75V10.4688C16 10.8125 15.9349 11.138 15.8047 11.4453C15.6745 11.7474 15.4948 12.013 15.2656 12.2422C15.0417 12.4661 14.776 12.6432 14.4688 12.7734C14.1667 12.9036 13.8438 12.9688 13.5 12.9688C13.3021 12.9688 13.099 12.9453 12.8906 12.8984C12.6875 12.8516 12.5 12.7786 12.3281 12.6797C12.1979 13.1016 12.0078 13.487 11.7578 13.8359C11.5078 14.1797 11.2135 14.4766 10.875 14.7266C10.5417 14.9714 10.1719 15.1615 9.76562 15.2969C9.35938 15.4323 8.9375 15.5 8.5 15.5C7.98958 15.5 7.50781 15.4115 7.05469 15.2344C6.60677 15.0573 6.20573 14.8125 5.85156 14.5C5.5026 14.1875 5.21094 13.8177 4.97656 13.3906C4.7474 12.9635 4.59896 12.5 4.53125 12H0.664062C0.481771 12 0.325521 11.9349 0.195312 11.8047C0.0651042 11.6745 0 11.5182 0 11.3359V4.66406C0 4.48177 0.0651042 4.32552 0.195312 4.19531C0.325521 4.0651 0.481771 4 0.664062 4H6.39062C6.23958 3.68229 6.16406 3.34896 6.16406 3C6.16406 2.67708 6.22396 2.375 6.34375 2.09375C6.46875 1.80729 6.63542 1.5599 6.84375 1.35156C7.05729 1.13802 7.30469 0.971354 7.58594 0.851562C7.8724 0.726562 8.17708 0.664062 8.5 0.664062C8.82292 0.664062 9.125 0.726562 9.40625 0.851562C9.69271 0.971354 9.9401 1.13802 10.1484 1.35156C10.362 1.5599 10.5286 1.80729 10.6484 2.09375C10.7734 2.375 10.8359 2.67708 10.8359 3C10.8359 3.32292 10.7734 3.6276 10.6484 3.91406C10.5286 4.19531 10.362 4.44271 10.1484 4.65625C9.9401 4.86458 9.69271 5.03125 9.40625 5.15625C9.125 5.27604 8.82292 5.33594 8.5 5.33594C8.41667 5.33594 8.33333 5.33073 8.25 5.32031C8.16667 5.3099 8.08333 5.29688 8 5.28125V6H15.25C15.4583 6 15.6354 6.07292 15.7812 6.21875C15.9271 6.36458 16 6.54167 16 6.75ZM8.5 1.66406C8.31771 1.66406 8.14323 1.70052 7.97656 1.77344C7.8151 1.84115 7.67448 1.9375 7.55469 2.0625C7.4349 2.18229 7.33854 2.32292 7.26562 2.48438C7.19792 2.64583 7.16406 2.81771 7.16406 3C7.16406 3.18229 7.19792 3.35677 7.26562 3.52344C7.33854 3.6849 7.4349 3.82552 7.55469 3.94531C7.67448 4.0651 7.8151 4.16146 7.97656 4.23438C8.14323 4.30208 8.31771 4.33594 8.5 4.33594C8.68229 4.33594 8.85417 4.30208 9.01562 4.23438C9.17708 4.16146 9.31771 4.0651 9.4375 3.94531C9.5625 3.82552 9.65885 3.6849 9.72656 3.52344C9.79948 3.35677 9.83594 3.18229 9.83594 3C9.83594 2.81771 9.79948 2.64583 9.72656 2.48438C9.65885 2.32292 9.5625 2.18229 9.4375 2.0625C9.31771 1.9375 9.17708 1.84115 9.01562 1.77344C8.85417 1.70052 8.68229 1.66406 8.5 1.66406ZM4.625 6.625H6.125V5.375H1.875V6.625H3.375V10.625H4.625V6.625ZM11.5 11.5V7H8V11.3359C8 11.5182 7.9349 11.6745 7.80469 11.8047C7.67448 11.9349 7.51823 12 7.33594 12H5.53906C5.60677 12.3594 5.72917 12.6927 5.90625 13C6.08854 13.3073 6.30729 13.5729 6.5625 13.7969C6.82292 14.0156 7.11719 14.1875 7.44531 14.3125C7.77344 14.4375 8.125 14.5 8.5 14.5C8.91146 14.5 9.29948 14.4219 9.66406 14.2656C10.0286 14.1094 10.3464 13.8958 10.6172 13.625C10.8932 13.349 11.1094 13.0312 11.2656 12.6719C11.4219 12.3073 11.5 11.9167 11.5 11.5ZM15 10.4688V7H12.5V11.5703C12.6354 11.7057 12.7891 11.8073 12.9609 11.875C13.1328 11.9375 13.3125 11.9688 13.5 11.9688C13.7083 11.9688 13.9036 11.9297 14.0859 11.8516C14.2682 11.7734 14.4271 11.6667 14.5625 11.5312C14.6979 11.3958 14.8047 11.237 14.8828 11.0547C14.9609 10.8724 15 10.6771 15 10.4688Z" fill="#4f52b2"/>
</svg>
